<?xml version="1.0" standalone="no"?>
<!DOCTYPE svg PUBLIC "-//W3C//DTD SVG 20010904//EN"
 "http://www.w3.org/TR/2001/REC-SVG-20010904/DTD/svg10.dtd">
<svg version="1.0" xmlns="http://www.w3.org/2000/svg"
 width="1080.000000pt" height="1080.000000pt" viewBox="0 0 1080.000000 1080.000000"
 preserveAspectRatio="xMidYMid meet">
<metadata>
Created by potrace 1.11, written by Peter Selinger 2001-2013
</metadata>
<g transform="translate(0.000000,1080.000000) scale(0.100000,-0.100000)"
fill="#000000" stroke="none">
<path d="M5138 10745 c-2 -2 -50 -6 -108 -10 -147 -10 -254 -20 -320 -30 -14
-2 -45 -7 -70 -10 -36 -5 -192 -31 -295 -49 -61 -11 -307 -72 -415 -103 -394
-112 -836 -297 -1165 -488 -33 -19 -73 -42 -90 -51 -36 -20 -268 -166 -275
-174 -3 -3 -16 -13 -30 -22 -91 -61 -317 -230 -364 -273 -6 -6 -27 -23 -46
-39 -157 -128 -450 -417 -596 -586 -148 -172 -329 -408 -414 -541 -78 -122
-170 -269 -170 -273 0 -2 -18 -34 -41 -71 -66 -109 -241 -469 -289 -595 -11
-30 -27 -69 -35 -87 -8 -17 -15 -37 -15 -45 0 -8 -4 -18 -9 -23 -10 -12 -87
-239 -130 -385 -52 -182 -109 -432 -136 -600 -3 -19 -7 -46 -10 -60 -3 -14 -7
-47 -11 -75 -3 -27 -7 -57 -9 -65 -8 -46 -21 -172 -32 -315 -10 -143 -10 -611
1 -740 4 -55 9 -120 11 -145 3 -44 10 -103 21 -185 3 -22 7 -51 9 -65 5 -38
17 -113 21 -135 2 -11 9 -49 14 -84 6 -35 20 -103 31 -150 11 -47 22 -95 24
-106 19 -97 84 -321 149 -512 60 -176 91 -253 188 -473 44 -98 171 -344 238
-460 188 -322 381 -588 650 -895 126 -143 459 -459 622 -590 629 -506 1378
-870 2148 -1046 126 -28 291 -60 385 -74 22 -4 51 -8 65 -10 238 -36 443 -49
760 -50 235 0 316 4 515 20 53 5 134 14 175 20 14 2 45 7 70 10 438 58 1019
224 1388 396 46 22 86 39 89 39 12 0 310 153 400 206 51 30 95 54 98 54 3 0
18 9 33 19 15 10 92 62 172 114 126 82 333 231 366 262 6 5 26 21 45 35 156
116 522 469 695 672 576 672 952 1407 1159 2265 19 81 38 161 40 178 3 16 10
53 15 80 5 28 12 66 15 85 3 19 7 46 10 60 7 39 13 80 20 145 4 33 8 75 11 93
11 82 13 104 20 207 11 143 11 609 1 750 -14 177 -22 261 -34 330 -2 17 -6 47
-8 67 -2 20 -12 79 -21 130 -9 51 -18 107 -21 123 -2 17 -13 68 -24 115 -11
47 -23 96 -25 110 -3 14 -7 33 -10 42 -3 9 -7 26 -9 39 -20 101 -142 477 -213
654 -75 188 -248 555 -282 600 -6 9 -20 32 -77 135 -8 14 -22 37 -31 52 -9 15
-42 67 -71 115 -178 288 -445 618 -731 903 -416 417 -858 737 -1376 998 -382
193 -797 343 -1194 433 -132 30 -455 90 -468 87 -4 -1 -29 2 -57 6 -97 14
-111 16 -185 21 -41 3 -93 8 -115 11 -40 6 -641 14 -647 9z m622 -809 c25 -3
68 -8 95 -10 75 -8 288 -36 305 -41 8 -3 33 -7 55 -10 81 -12 313 -67 445
-105 559 -162 1074 -427 1545 -794 50 -39 92 -73 95 -76 3 -3 37 -32 75 -65
91 -77 376 -362 446 -445 30 -36 59 -69 65 -75 6 -5 33 -39 60 -75 27 -36 52
-67 55 -70 4 -3 48 -63 98 -135 50 -71 95 -134 99 -140 9 -11 121 -195 154
-253 35 -61 162 -312 195 -387 108 -243 228 -599 267 -790 2 -11 10 -42 16
-70 20 -85 46 -222 55 -287 3 -21 7 -55 10 -75 18 -127 20 -145 32 -293 10
-133 10 -556 0 -675 -15 -165 -18 -200 -22 -215 -2 -8 -7 -40 -10 -70 -8 -76
-53 -322 -72 -395 -8 -33 -17 -71 -20 -85 -14 -82 -117 -403 -175 -550 -125
-317 -326 -694 -493 -926 -17 -23 -37 -52 -45 -64 -39 -59 -180 -238 -285
-360 -49 -57 -376 -381 -440 -436 -88 -75 -198 -161 -300 -236 -98 -70 -273
-188 -281 -188 -3 0 -10 -5 -17 -10 -58 -51 -471 -259 -662 -335 -66 -26 -129
-51 -140 -56 -69 -30 -396 -129 -511 -154 -11 -2 -60 -13 -111 -24 -51 -12
-109 -23 -130 -27 -21 -3 -45 -7 -53 -9 -19 -6 -135 -22 -215 -30 -33 -4 -71
-8 -85 -10 -160 -26 -733 -26 -945 0 -148 18 -192 24 -280 40 -44 8 -96 17
-115 20 -19 3 -64 12 -100 21 -36 8 -94 22 -130 30 -357 84 -801 264 -1165
472 -207 120 -532 347 -654 459 -14 12 -48 41 -77 65 -67 55 -339 329 -430
433 -275 315 -558 756 -714 1115 -22 52 -45 104 -50 115 -38 81 -133 354 -179
515 -55 191 -124 535 -136 677 -2 24 -6 56 -9 71 -20 103 -28 634 -12 832 8
112 10 132 32 293 70 532 270 1121 542 1597 112 197 332 521 394 583 10 10 18
21 18 25 0 4 19 27 41 52 23 25 68 77 100 115 33 39 126 136 207 216 128 126
186 179 327 298 15 13 76 60 134 104 495 377 1117 666 1724 803 9 2 27 6 40 9
59 14 293 56 334 60 25 2 62 7 82 10 67 9 115 14 221 21 58 3 106 8 108 9 6 5
544 -4 592 -9z"/>
<path d="M4215 8331 c-46 -21 -89 -62 -113 -106 -16 -28 -17 -236 -19 -2705
-3 -2654 -2 -2675 17 -2719 24 -52 59 -86 118 -113 35 -16 62 -19 155 -17 61
1 123 6 137 11 48 18 97 58 121 101 l24 42 0 2685 c0 2503 -1 2687 -17 2715
-26 45 -59 80 -98 101 -52 28 -268 31 -325 5z"/>
<path d="M6135 7780 c-51 -23 -87 -56 -111 -100 -18 -34 -19 -94 -21 -2155 -3
-2100 -2 -2120 17 -2164 24 -51 59 -85 115 -112 59 -28 252 -27 309 1 59 29
93 61 116 111 19 44 20 64 17 2164 -2 1952 -3 2122 -19 2150 -24 45 -68 85
-113 106 -57 26 -254 25 -310 -1z"/>
<path d="M3267 7616 c-55 -20 -94 -54 -125 -111 -16 -28 -17 -185 -17 -1990
l0 -1960 24 -42 c24 -43 73 -83 121 -101 14 -5 77 -10 140 -11 107 -2 119 0
165 24 57 30 78 53 106 111 19 41 19 84 16 1990 -2 1837 -3 1951 -20 1981 -25
46 -64 83 -111 104 -51 23 -239 26 -299 5z"/>
<path d="M7109 7246 c-48 -17 -83 -45 -117 -93 l-27 -38 0 -1595 c0 -1762 -5
-1617 61 -1684 52 -51 80 -60 207 -64 93 -3 128 -1 162 12 54 21 101 66 126
119 18 41 18 96 18 1612 0 1506 0 1572 -18 1611 -23 51 -63 92 -114 114 -50
23 -243 26 -298 6z"/>
<path d="M5187 7056 c-35 -13 -54 -25 -94 -63 -8 -7 -22 -31 -33 -55 -19 -42
-19 -78 -20 -1420 0 -937 3 -1386 11 -1405 19 -51 59 -99 102 -124 38 -21 55
-24 168 -26 117 -2 130 -1 176 23 54 26 97 77 113 135 6 21 10 537 10 1404 -1
1309 -1 1372 -19 1410 -25 55 -49 79 -105 109 -44 24 -59 26 -160 26 -67 -1
-126 -6 -149 -14z"/>
<path d="M2295 6881 c-54 -25 -92 -62 -115 -113 -19 -42 -19 -80 -19 -1253 0
-1151 0 -1212 18 -1250 21 -46 62 -89 106 -113 45 -24 252 -30 309 -8 53 20
103 68 127 121 18 38 18 101 19 1247 0 817 -4 1216 -11 1235 -20 55 -62 102
-111 127 -43 22 -62 25 -166 25 -92 0 -126 -4 -157 -18z"/>
<path d="M8067 6436 c-59 -22 -97 -57 -127 -121 -19 -38 -19 -72 -20 -801 l0
-761 25 -49 c29 -57 81 -99 139 -115 24 -7 88 -9 151 -7 93 3 117 8 153 28 42
24 82 72 101 123 8 19 10 276 8 795 -2 844 2 790 -64 856 -49 50 -96 64 -218
65 -70 0 -124 -4 -148 -13z"/>
</g>
</svg>
